<svg width="19" height="20" viewBox="0 0 19 20" fill="none" xmlns="http://www.w3.org/2000/svg">
<path d="M1 1.5L18 18.5M14.09 14.59C12.7691 15.5969 11.1607 16.1547 9.5 16.1818C4.09091 16.1818 1 10 1 10C1.96119 8.20874 3.29433 6.64374 4.91 5.41L14.09 14.59ZM7.87727 4.00364C8.40917 3.87913 8.95373 3.8169 9.5 3.81818C14.9091 3.81818 18 10 18 10C17.5309 10.8775 16.9715 11.7037 16.3309 12.465L7.87727 4.00364ZM11.1382 11.6382C10.926 11.8659 10.67 12.0486 10.3857 12.1753C10.1013 12.302 9.79433 12.3702 9.48307 12.3756C9.17181 12.3811 8.86263 12.3239 8.57397 12.2073C8.28532 12.0907 8.0231 11.9172 7.80297 11.697C7.58284 11.4769 7.4093 11.2147 7.29271 10.926C7.17612 10.6374 7.11886 10.3282 7.12435 10.0169C7.12985 9.70567 7.19797 9.3987 7.32468 9.11434C7.45138 8.82997 7.63406 8.57405 7.86182 8.36182L11.1382 11.6382Z" stroke="#C0C0C0" stroke-width="2" stroke-linecap="round" stroke-linejoin="round"/>
</svg>
