<svg width="20" height="20" viewBox="0 0 20 20" fill="none" xmlns="http://www.w3.org/2000/svg">
<path d="M9.34731 19.0996C8.91194 19.0998 8.49368 18.9272 8.18147 18.6187L0.482484 10.7894C-0.160828 10.1344 -0.160828 9.07332 0.482484 8.41831L8.18147 0.589092C8.59995 0.16553 9.20885 0.00117569 9.7788 0.157941C10.3488 0.314706 10.7932 0.768773 10.9447 1.3491C11.0961 1.92943 10.9316 2.54785 10.5132 2.97141L3.99102 9.61507L10.5132 16.2364C10.9844 16.7161 11.1252 17.4372 10.8701 18.0637C10.615 18.6903 10.0141 19.099 9.34731 19.0996Z" fill="#282828"/>
<path d="M18.3333 11.0996H1.66667C0.746192 11.0996 0 10.428 0 9.59961C0 8.77118 0.746192 8.09961 1.66667 8.09961H18.3333C19.2538 8.09961 20 8.77118 20 9.59961C20 10.428 19.2538 11.0996 18.3333 11.0996Z" fill="#282828"/>
</svg>
