<svg width="15" height="18" viewBox="0 0 15 18" fill="none" xmlns="http://www.w3.org/2000/svg">
<path d="M11.6544 1.58655C10.3478 0.623501 8.69465 0.116392 7.00147 0.159249C5.30829 0.202105 3.68994 0.79202 2.44647 1.81962C1.20299 2.84722 0.418764 4.24278 0.239176 5.74757C0.0595879 7.25236 0.496826 8.76429 1.46982 10.003L7.0252 17.0757C7.04486 17.1007 7.07099 17.1212 7.10136 17.1353C7.13174 17.1494 7.16547 17.1567 7.1997 17.1567C7.23393 17.1567 7.26766 17.1494 7.29804 17.1353C7.32841 17.1212 7.35453 17.1007 7.3742 17.0757L12.9296 10.003C13.9418 8.7143 14.3728 7.13189 14.1364 5.57173C13.9 4.01157 13.0137 2.58847 11.6544 1.58655ZM7.19969 9.60112C6.48883 9.60112 5.79393 9.41279 5.20286 9.05995C4.6118 8.70711 4.15112 8.2056 3.87909 7.61885C3.60705 7.03209 3.53587 6.38645 3.67455 5.76355C3.81324 5.14066 4.15555 4.56849 4.65821 4.11941C5.16087 3.67033 5.80129 3.3645 6.4985 3.2406C7.19571 3.1167 7.91838 3.18029 8.57513 3.42333C9.23189 3.66637 9.79322 4.07795 10.1882 4.60601C10.5831 5.13407 10.7939 5.75491 10.7939 6.39001C10.7939 7.24165 10.4152 8.05841 9.74117 8.66061C9.06713 9.26281 8.15293 9.60112 7.19969 9.60112Z" fill="#A8B1B2"/>
</svg>
