<svg width="27" height="27" viewBox="0 0 27 27" fill="none" xmlns="http://www.w3.org/2000/svg">
<path d="M13.462 7.47874C13.462 8.52469 13.4239 9.57173 13.4706 10.6156C13.4993 11.7394 13.1675 12.8427 12.5243 13.7632C11.881 14.6836 10.9602 15.3724 9.89739 15.7282C9.49957 15.8968 9.08297 16.0166 8.65652 16.085C8.49835 16.1063 8.44422 16.1638 8.45165 16.3246C8.48774 17.9298 8.33912 19.5435 8.52383 21.1401C8.55596 21.6002 8.69494 22.0464 8.92968 22.4429C9.16441 22.8394 9.48835 23.1753 9.87562 23.4238C10.2629 23.6722 10.7028 23.8262 11.16 23.8736C11.6173 23.9209 12.0792 23.8603 12.5088 23.6964C13.0142 23.4813 13.4548 23.1375 13.7872 22.699C14.1195 22.2606 14.3319 21.7427 14.4036 21.1966C14.4519 20.9074 14.4721 20.6141 14.4641 20.321C14.4715 18.472 14.4025 16.6197 14.4907 14.7738C14.4928 13.8009 14.7863 12.8511 15.3329 12.0475C15.8796 11.244 16.6542 10.6238 17.5564 10.2673C18.209 10.01 18.9099 9.89995 19.6096 9.94504C20.3093 9.99012 20.9905 10.1892 21.6049 10.5281C22.2193 10.8671 22.7517 11.3376 23.1646 11.9062C23.5774 12.4748 23.8604 13.1277 23.9935 13.8184C24.1007 14.2909 24.1548 14.7739 24.1548 15.2585C24.1548 16.6101 24.1548 17.9618 24.1485 19.3134C24.1319 19.4106 24.1511 19.5105 24.2025 19.5945C24.2538 19.6786 24.3339 19.7411 24.4277 19.7704C24.8622 19.956 25.2532 20.2307 25.5757 20.5769C25.8981 20.9231 26.1447 21.3332 26.2999 21.7807C26.4551 22.2282 26.5153 22.7034 26.4766 23.1756C26.438 23.6479 26.3014 24.1068 26.0756 24.523C25.8498 24.9391 25.5397 25.3033 25.1653 25.5921C24.7909 25.8809 24.3605 26.088 23.9016 26.2C23.4428 26.3121 22.9656 26.3266 22.5008 26.2427C22.0361 26.1588 21.5938 25.9782 21.2027 25.7127C20.6808 25.3843 20.2643 24.9121 20.0028 24.3524C19.7413 23.7927 19.646 23.1693 19.7283 22.5567C19.7628 21.9537 19.9677 21.3731 20.3191 20.8826C20.6704 20.3922 21.1536 20.0124 21.7122 19.7874C21.8169 19.7565 21.907 19.6885 21.9655 19.596C22.0241 19.5036 22.0472 19.393 22.0307 19.2847C22.018 17.9203 22.0243 16.5558 22.0254 15.1914C22.0571 14.6731 21.9581 14.1552 21.7375 13.6855C21.5169 13.2158 21.1818 12.8094 20.7633 12.504C20.4612 12.2905 20.1167 12.1449 19.7535 12.077C19.3902 12.0091 19.0167 12.0206 18.6582 12.1107C18.2998 12.2007 17.9649 12.3672 17.6764 12.5989C17.3879 12.8305 17.1525 13.1219 16.9864 13.4531C16.6841 14.0296 16.5377 14.6756 16.5617 15.3267C16.5543 17.2269 16.5978 19.1291 16.5266 21.0261C16.4779 22.3418 15.9329 23.5898 15.0016 24.5173C14.0703 25.4448 12.8225 25.9825 11.5109 26.0216C10.4662 26.0271 9.44583 25.7057 8.59173 25.1021C7.73763 24.4984 7.09232 23.6426 6.74571 22.6537C6.47972 21.9627 6.34931 21.2268 6.36151 20.4862C6.37318 19.1728 6.353 17.8585 6.37317 16.5452C6.37317 16.2309 6.26697 16.1478 5.98248 16.0999C4.45607 15.8895 3.06255 15.116 2.07393 13.9302C1.36166 13.0676 0.980947 11.9774 1.00073 10.8573C1.00073 8.51404 1.00073 6.16435 1.00073 3.81787C0.997535 3.08304 1.26791 2.3735 1.75878 1.82816C2.24966 1.28282 2.92567 0.941027 3.65456 0.869647C4.05669 0.805485 4.46449 0.784396 4.87106 0.806782C5.01979 0.79078 5.1703 0.806468 5.31255 0.852874C5.4548 0.89928 5.58559 0.975351 5.6965 1.07605C5.80741 1.17676 5.89586 1.29985 5.95605 1.43725C6.01624 1.57465 6.04677 1.72326 6.04572 1.87334C6.04466 2.02343 6.01207 2.1716 5.94996 2.30813C5.88785 2.44467 5.79767 2.5665 5.68535 2.66562C5.57304 2.76475 5.44118 2.83895 5.29829 2.88334C5.15541 2.92774 5.00478 2.9413 4.85629 2.9232C4.46435 2.89308 4.07002 2.92614 3.68851 3.02117C3.50574 3.0598 3.3442 3.16608 3.23601 3.31885C3.12782 3.47162 3.08099 3.65967 3.10474 3.84556C3.10474 6.12814 3.12485 8.41184 3.09619 10.6944C3.0617 11.246 3.18708 11.7957 3.4572 12.2773C3.72733 12.7589 4.13073 13.1517 4.61851 13.4083C5.44207 13.9172 6.39558 14.1741 7.36239 14.1476C8.3292 14.1211 9.26729 13.8124 10.062 13.2592C10.4774 13.0054 10.8169 12.6439 11.0448 12.2128C11.2727 11.7817 11.3806 11.2969 11.357 10.8094C11.3294 8.52684 11.3486 6.24427 11.3486 3.96063C11.3685 3.82822 11.3585 3.69298 11.3193 3.56498C11.2801 3.43697 11.2126 3.31944 11.1219 3.22114C11.0313 3.12283 10.9198 3.0463 10.7956 2.99711C10.6715 2.94793 10.5379 2.92739 10.4048 2.93704C10.0641 2.91041 9.71909 2.92855 9.37621 2.92216C9.22749 2.93816 9.07711 2.9224 8.93486 2.876C8.79261 2.82959 8.66169 2.75352 8.55078 2.65282C8.43987 2.55211 8.35142 2.42908 8.29123 2.29168C8.23104 2.15428 8.20051 2.00561 8.20156 1.85553C8.20261 1.70545 8.23521 1.55734 8.29732 1.42081C8.35943 1.28427 8.44961 1.16244 8.56192 1.06331C8.67424 0.964188 8.80623 0.889983 8.94911 0.845593C9.092 0.801202 9.24263 0.787639 9.39111 0.805742C10.2034 0.734191 11.021 0.859086 11.7753 1.16999C12.2843 1.3807 12.7175 1.74147 13.0177 2.20457C13.3179 2.66768 13.471 3.2113 13.4567 3.76359C13.4663 5.00446 13.462 6.24212 13.462 7.47874ZM25.5476 22.8742C25.5657 22.264 25.3437 21.6712 24.9294 21.224C24.5152 20.7769 23.9422 20.5114 23.3343 20.485C23.2648 20.477 23.1944 20.4831 23.1274 20.5032C23.0604 20.5232 22.9981 20.5567 22.9444 20.6017C22.8907 20.6466 22.8467 20.702 22.8149 20.7645C22.7832 20.8271 22.7646 20.8954 22.76 20.9654C22.7511 21.0352 22.7569 21.1061 22.7768 21.1736C22.7968 21.241 22.8306 21.3035 22.8761 21.357C22.9216 21.4106 22.9778 21.454 23.0409 21.4845C23.1041 21.515 23.1729 21.532 23.243 21.5342C23.2801 21.5396 23.3194 21.5342 23.3566 21.5428C23.5411 21.5544 23.7206 21.6079 23.8815 21.6991C24.0425 21.7903 24.1807 21.9169 24.2859 22.0694C24.3912 22.2219 24.4605 22.3964 24.4889 22.5797C24.5173 22.763 24.5041 22.9503 24.45 23.1277C24.3792 23.388 24.2263 23.6185 24.0143 23.7847C23.8024 23.9509 23.5427 24.044 23.2738 24.0501C22.8938 24.1076 22.7228 24.3174 22.7568 24.6231C22.7939 24.9533 23.0126 25.1013 23.4202 25.0694C23.9831 25.0335 24.5126 24.789 24.9057 24.3833C25.2989 23.9776 25.5276 23.4397 25.5476 22.8742Z" fill="#939393" stroke="#939393" stroke-width="0.5"/>
<path d="M25.4829 22.6431C25.4617 23.2466 25.2177 23.8206 24.7983 24.2536C24.3789 24.6867 23.814 24.9479 23.2134 24.9864C22.7781 25.0204 22.5446 24.8628 22.5053 24.5092C22.4692 24.1832 22.6518 23.9585 23.0573 23.8967C23.3442 23.8901 23.6213 23.7908 23.8474 23.6135C24.0735 23.4361 24.2365 23.1903 24.3121 22.9125C24.3699 22.7231 24.3841 22.523 24.3538 22.3272C24.3235 22.1315 24.2494 21.9452 24.137 21.7823C24.0247 21.6194 23.8769 21.4842 23.705 21.3869C23.5331 21.2895 23.3413 21.2324 23.1443 21.22C23.104 21.22 23.0626 21.22 23.0222 21.2104C22.9474 21.2081 22.874 21.1901 22.8065 21.1575C22.739 21.125 22.6789 21.0786 22.6304 21.0214C22.5818 20.9643 22.5457 20.8976 22.5244 20.8256C22.503 20.7536 22.4968 20.6778 22.5064 20.6033C22.5113 20.5286 22.5314 20.4556 22.5653 20.3889C22.5992 20.3222 22.6463 20.2631 22.7037 20.2152C22.7611 20.1673 22.8276 20.1315 22.8991 20.1102C22.9707 20.0888 23.0458 20.0823 23.1199 20.091C23.7691 20.1193 24.381 20.4029 24.8233 20.8806C25.2656 21.3582 25.5025 21.9914 25.4829 22.6431Z" fill="#F4F4F4"/>
</svg>
