<svg width="25" height="27" viewBox="0 0 25 27" fill="none" xmlns="http://www.w3.org/2000/svg">
<path d="M12.6445 19.1458C11.6832 19.1894 10.7238 19.0234 9.83248 18.6592C8.94121 18.295 8.13913 17.7413 7.48162 17.0362C6.82411 16.3311 6.32683 15.4913 6.02383 14.5748C5.72082 13.6583 5.6193 12.6868 5.72644 11.7272C5.89068 10.6334 6.3341 9.60087 7.01357 8.72984C7.69305 7.85881 8.58556 7.17894 9.60429 6.75625C9.88559 6.61885 9.95779 6.5592 9.75292 6.28652C9.39134 5.82267 9.15772 5.27153 9.0756 4.68844C8.99347 4.10534 9.06568 3.51081 9.285 2.96459C9.50432 2.41836 9.86297 1.93966 10.325 1.57655C10.7871 1.21343 11.3362 0.978676 11.9173 0.895889C12.4121 0.767357 12.9286 0.74663 13.432 0.835105C13.9354 0.92358 14.4142 1.11921 14.836 1.40882C15.2578 1.69844 15.6128 2.07532 15.8773 2.51413C16.1418 2.95294 16.3096 3.4435 16.3693 3.95281C16.4194 4.36048 16.385 4.77412 16.2683 5.16782C16.1515 5.56152 15.9551 5.92679 15.6911 6.24072C15.4788 6.48996 15.5149 6.58476 15.8185 6.73175C17.3588 7.38288 18.5802 8.61851 19.2165 10.1693C19.8528 11.7202 19.8523 13.4605 19.2153 15.011C18.6476 16.2729 17.7211 17.3384 16.5522 18.074C15.3832 18.8096 14.0239 19.1825 12.6445 19.1458Z" fill="#939393" stroke="#939393"/>
<path d="M6.23928 23.8068C6.23928 24.5311 6.23928 25.2554 6.23928 25.9797C6.23928 26.2683 6.17769 26.2992 5.61508 26.2992C4.41201 26.2992 3.21168 26.2992 2.01427 26.2992C1.21706 26.2992 0.84669 26.0564 1.059 25.6474C2.03673 23.8566 3.5527 22.4212 5.39104 21.5456C5.47808 21.4987 5.57158 21.4561 5.66393 21.4124C5.79244 21.3472 5.93962 21.3291 6.08002 21.3613C6.22863 21.3975 6.24132 21.4742 6.24239 21.5477C6.24239 21.8161 6.24239 22.0802 6.24239 22.3519C6.24026 22.8368 6.23928 23.3218 6.23928 23.8068Z" fill="#939393" stroke="#939393"/>
<path d="M19.21 23.7728C19.21 23.0794 19.21 22.3881 19.21 21.6926C19.21 21.5701 19.1112 21.4146 19.4042 21.3454C19.5185 21.3242 19.6359 21.328 19.7485 21.3565C19.8612 21.385 19.9664 21.4375 20.057 21.5105C21.7608 22.3338 23.2008 23.6193 24.214 25.2214C24.3038 25.3613 24.3847 25.5068 24.4561 25.657C24.6121 26.0011 24.2501 26.2673 23.5622 26.2567C22.2948 26.2375 21.0251 26.2567 19.7555 26.2513C19.2778 26.2513 19.2078 26.2162 19.2067 25.9638C19.2046 25.232 19.21 24.5024 19.21 23.7728Z" fill="#939393" stroke="#939393"/>
<path d="M12.7251 24.0582C11.4845 24.0582 10.2443 24.0582 9.00439 24.0582C8.45452 24.0582 8.38126 23.9837 8.3802 23.4426C8.3802 22.6128 8.38975 21.7831 8.3802 20.9534C8.37383 20.5795 8.52243 20.4208 8.89503 20.441C9.15616 20.457 9.41835 20.441 9.68055 20.441C9.80586 20.4325 9.93082 20.4627 10.0385 20.5277C10.1461 20.5926 10.2312 20.6892 10.2825 20.8043C10.5894 21.3666 11.0801 21.8057 11.672 22.0476C12.2638 22.2896 12.9206 22.3195 13.5318 22.1325C13.8924 22.0702 14.2335 21.9246 14.5283 21.7072C14.8231 21.4898 15.0634 21.2066 15.2303 20.8799C15.3021 20.73 15.4191 20.6065 15.5646 20.5268C15.7101 20.4471 15.8768 20.4153 16.0413 20.4357C17.158 20.4474 17.1103 20.3292 17.1028 21.4763C17.1028 22.1261 17.1028 22.7758 17.1028 23.4266C17.1028 23.9816 17.0338 24.0529 16.4903 24.054C15.2349 24.0582 13.9798 24.0596 12.7251 24.0582Z" fill="#939393" stroke="#939393"/>
<path d="M12.7019 25.1873C12.8478 25.1885 12.9876 25.2461 13.0923 25.348C13.1971 25.45 13.2587 25.5885 13.2644 25.7348C13.2653 25.8816 13.209 26.0229 13.1075 26.1285C13.0059 26.2342 12.8672 26.2959 12.7209 26.3003C12.6484 26.3021 12.5762 26.2894 12.5087 26.2629C12.4411 26.2363 12.3796 26.1964 12.3277 26.1456C12.2757 26.0947 12.2345 26.034 12.2064 25.9669C12.1782 25.8998 12.1636 25.8278 12.1636 25.755C12.1618 25.6086 12.2172 25.4673 12.3177 25.3613C12.4182 25.2552 12.5561 25.1928 12.7019 25.1873Z" fill="#939393" stroke="#939393"/>
</svg>
