<svg width="15" height="14" viewBox="0 0 15 14" fill="none" xmlns="http://www.w3.org/2000/svg">
<path d="M12 5.10988H9V2.78719C9.05038 2.34119 8.908 1.89487 8.6042 1.54641C8.30039 1.19794 7.86004 0.975862 7.38 0.929032C7.25378 0.915095 7.12622 0.915095 7 0.929032H6.215C6.04787 0.933286 5.88698 0.988962 5.75758 1.08733C5.62818 1.18569 5.53758 1.32118 5.5 1.47254V1.52829L5 4.47346L3.23 6.96804H0V13.4716H9.5C13.22 13.4716 14 11.4508 14 9.75527V6.96804C14.0504 6.52205 13.908 6.07573 13.6042 5.72726C13.3004 5.37879 12.86 5.15671 12.38 5.10988C12.2538 5.09595 12.1262 5.09595 12 5.10988ZM3 12.5425H1V7.89712H3V12.5425ZM13 9.75527C13 11.6552 11.89 12.5425 9.5 12.5425H4V7.57194L6 4.81722L6.365 2.32265L6.435 1.85811H7C7.72 1.85811 8 2.11825 8 2.78719V6.03896H12C12.72 6.03896 13 6.2991 13 6.96804V9.75527Z" fill="white"/>
</svg>
