<svg width="29" height="27" viewBox="0 0 29 27" fill="none" xmlns="http://www.w3.org/2000/svg">
<path d="M14.7195 25.8766C16.263 25.8766 17.8075 25.8862 19.352 25.8766C19.7226 25.8902 20.0922 25.8299 20.4393 25.6991C20.7865 25.5683 21.1043 25.3695 21.3743 25.1145C21.6443 24.8594 21.8611 24.5531 22.0122 24.2133C22.1632 23.8735 22.2455 23.507 22.2542 23.135C22.281 22.7008 22.281 22.2654 22.2542 21.8313C22.2076 20.4804 21.674 19.1925 20.7525 18.2066C19.8311 17.2207 18.5843 16.6038 17.2438 16.4704C15.6242 16.3268 13.9954 16.3198 12.3746 16.4492C11.4838 16.5002 10.6193 16.7713 9.85814 17.2385C9.09698 17.7056 8.4627 18.3544 8.01171 19.1269C7.36366 20.2503 7.0719 21.545 7.17523 22.8389C7.15235 23.244 7.21514 23.6493 7.35953 24.0283C7.50391 24.4074 7.72659 24.7514 8.01294 25.038C8.29929 25.3245 8.64282 25.5469 9.02095 25.6907C9.39909 25.8345 9.80327 25.8965 10.2069 25.8724C11.7133 25.8798 13.2164 25.8766 14.7195 25.8766ZM10.7441 14.8153C10.0158 14.0866 9.49769 13.1736 9.24464 12.1734C8.99159 11.1731 9.01307 10.1228 9.30678 9.13381C9.36622 8.92078 9.28978 8.89206 9.09446 8.88248C8.14815 8.82281 7.19905 8.82281 6.25274 8.88248C5.37755 8.93938 4.52849 9.20472 3.77586 9.65649C3.02323 10.1083 2.38872 10.7334 1.92489 11.4803C1.15981 12.7466 0.855585 14.2397 1.06398 15.7057C1.1035 16.3852 1.3935 17.0255 1.87753 17.5023C2.36155 17.9792 3.00502 18.2583 3.68279 18.2855C4.47893 18.3387 5.27507 18.3046 6.07865 18.3163C6.14388 18.3211 6.20908 18.3063 6.26583 18.2736C6.32258 18.241 6.3683 18.1921 6.39713 18.1331C7.38585 16.524 8.93563 15.3414 10.7451 14.8153H10.7441ZM18.678 14.8078C20.4598 15.329 21.9911 16.4844 22.9846 18.0575C23.0706 18.1917 23.1342 18.3291 23.3466 18.3227C24.1714 18.3003 24.9994 18.3365 25.822 18.2822C26.4343 18.2383 27.0146 17.9909 27.471 17.5791C27.9274 17.1672 28.2339 16.6145 28.3421 16.0082C28.4336 15.4168 28.4482 14.816 28.3857 14.2209C28.3303 13.0039 27.8806 11.8382 27.1048 10.9011C26.3291 9.96386 25.2696 9.30633 24.0875 9.02836C22.8196 8.80615 21.5271 8.76134 20.2469 8.89522C19.9943 8.90161 20.1407 9.08375 20.1683 9.1892C20.444 10.1739 20.4511 11.2148 20.1887 12.2032C19.9264 13.1916 19.4042 14.0911 18.6769 14.8078H18.678ZM14.6919 14.5245C15.4388 14.5297 16.1704 14.3124 16.7941 13.9001C17.4178 13.4878 17.9054 12.899 18.1953 12.2083C18.4852 11.5177 18.5643 10.7562 18.4225 10.0204C18.2807 9.28463 17.9245 8.60763 17.3989 8.07518C16.8733 7.54273 16.202 7.1788 15.4701 7.02949C14.7382 6.88017 13.9786 6.95224 13.2875 7.23648C12.5964 7.52072 12.005 8.00439 11.5881 8.62621C11.1712 9.24802 10.9477 9.98001 10.9458 10.7294C10.9427 11.7308 11.3353 12.6926 12.0377 13.404C12.7401 14.1153 13.695 14.5183 14.693 14.5245H14.6919ZM10.9447 3.64628C10.9462 2.99139 10.754 2.3508 10.3924 1.80557C10.0308 1.26035 9.51619 0.835031 8.91359 0.583441C8.311 0.331851 7.64756 0.26531 7.00726 0.392245C6.36696 0.519181 5.7786 0.833844 5.31665 1.29648C4.85469 1.75911 4.53991 2.34888 4.41217 2.9911C4.28442 3.63333 4.34945 4.29917 4.59902 4.90429C4.8486 5.50942 5.27149 6.02659 5.81417 6.39043C6.35685 6.75427 6.99491 6.94837 7.64759 6.94816C8.08071 6.94928 8.50982 6.86461 8.91026 6.69897C9.3107 6.53334 9.6746 6.29001 9.98112 5.98295C10.2876 5.67589 10.5307 5.31116 10.6964 4.90963C10.8622 4.50809 10.9472 4.07769 10.9468 3.64309L10.9447 3.64628ZM25.0917 3.64628C25.0932 2.99111 24.9008 2.35028 24.539 1.80492C24.1771 1.25956 23.6621 0.834192 23.0591 0.582791C22.4562 0.331389 21.7924 0.265246 21.1519 0.3927C20.5115 0.520155 19.9231 0.83548 19.4614 1.29875C18.9997 1.76202 18.6854 2.35236 18.5584 2.995C18.4314 3.63765 18.4973 4.3037 18.7479 4.90871C18.9984 5.51373 19.4223 6.03048 19.9658 6.39355C20.5093 6.75662 21.148 6.94963 21.801 6.94816C22.2336 6.94844 22.662 6.86316 23.0617 6.69715C23.4614 6.53114 23.8246 6.28765 24.1304 5.98067C24.4362 5.6737 24.6787 5.30924 24.8441 4.90813C25.0094 4.50702 25.0943 4.07715 25.0939 3.64309L25.0917 3.64628Z" fill="#939393" stroke="#939393" stroke-width="0.5"/>
<path d="M14.7195 25.8775C13.1654 25.8775 11.6103 25.8775 10.0562 25.8775C9.65493 25.917 9.2499 25.8707 8.86773 25.7419C8.48555 25.613 8.13488 25.4045 7.83879 25.1299C7.54269 24.8553 7.3079 24.521 7.1498 24.1489C6.9917 23.7767 6.91386 23.3752 6.92148 22.9708C6.81676 21.7221 7.12048 20.4731 7.78663 19.4132C8.28103 18.6565 8.94813 18.0291 9.73255 17.5828C10.517 17.1366 11.3961 16.8844 12.2971 16.8473C13.9734 16.7235 15.6567 16.7307 17.3319 16.8686C18.6697 16.948 19.9331 17.513 20.8863 18.4583C21.8394 19.4035 22.4173 20.6644 22.5122 22.0057C22.5398 22.4217 22.5398 22.8391 22.5122 23.2551C22.487 23.6251 22.3893 23.9864 22.2248 24.3184C22.0603 24.6505 21.8321 24.9467 21.5534 25.1902C21.2747 25.4336 20.9508 25.6196 20.6004 25.7373C20.25 25.8551 19.8798 25.9023 19.5112 25.8764C17.9125 25.8871 16.316 25.8775 14.7195 25.8775Z" fill="#939393" stroke="#939393" stroke-width="0.5"/>
<path d="M10.3396 14.7767C8.60811 15.2839 7.12622 16.4186 6.18159 17.9604C6.15315 18.017 6.10859 18.0638 6.05359 18.0949C5.99859 18.126 5.93561 18.14 5.87266 18.1351C5.1073 18.1234 4.33982 18.1564 3.57659 18.1053C2.92713 18.0791 2.31058 17.8116 1.84678 17.3547C1.38298 16.8978 1.1051 16.2842 1.06715 15.6331C0.867765 14.2288 1.15919 12.7986 1.89193 11.5856C2.33659 10.8699 2.94467 10.2709 3.66587 9.83782C4.38706 9.40478 5.20066 9.15028 6.03934 9.09534C6.9464 9.03805 7.85617 9.03805 8.76323 9.09534C8.94581 9.10386 9.01905 9.1315 8.96279 9.336C8.68197 10.2832 8.66168 11.2889 8.90405 12.2467C9.14643 13.2045 9.64245 14.0787 10.3396 14.7767Z" fill="#939393" stroke="#939393" stroke-width="0.5"/>
<path d="M19.0845 14.7703C19.7813 14.0834 20.2816 13.2214 20.5329 12.2743C20.7843 11.3272 20.7775 10.3296 20.5133 9.38602C20.4868 9.2859 20.3456 9.11018 20.5886 9.10485C21.8154 8.97672 23.0539 9.01973 24.2689 9.23266C25.4018 9.49909 26.417 10.1292 27.1604 11.0274C27.9038 11.9256 28.3347 13.0427 28.3877 14.209C28.4477 14.7793 28.4338 15.355 28.3463 15.9217C28.2422 16.5025 27.9483 17.032 27.511 17.4266C27.0737 17.8212 26.5179 18.0584 25.9313 18.1009C25.1426 18.1531 24.3497 18.118 23.5588 18.1393C23.355 18.1446 23.2945 18.0125 23.2117 17.8847C22.2596 16.3771 20.7921 15.2698 19.0845 14.7703Z" fill="#939393" stroke="#939393" stroke-width="0.5"/>
<path d="M14.695 14.3262C13.7383 14.3211 12.8228 13.9351 12.1496 13.2531C11.4765 12.571 11.1007 11.6487 11.1049 10.6888C11.1066 9.9703 11.3209 9.26845 11.7205 8.67224C12.1201 8.07603 12.6871 7.61227 13.3496 7.33972C14.0122 7.06716 14.7404 6.99809 15.4421 7.14124C16.1438 7.2844 16.7874 7.63332 17.2913 8.14383C17.7952 8.65435 18.1366 9.30347 18.2725 10.0089C18.4083 10.7144 18.3325 11.4444 18.0544 12.1065C17.7764 12.7687 17.3086 13.333 16.7106 13.7282C16.1125 14.1233 15.4111 14.3315 14.695 14.3262Z" fill="#939393" stroke="#939393" stroke-width="0.5"/>
<path d="M10.5338 3.5097C10.5325 4.13684 10.346 4.74956 9.99767 5.27031C9.64938 5.79106 9.15507 6.19647 8.57714 6.4353C7.99922 6.67412 7.36366 6.73565 6.7509 6.61206C6.13814 6.48847 5.57564 6.18533 5.13458 5.74098C4.69351 5.29664 4.39369 4.731 4.27299 4.11566C4.15229 3.50032 4.21613 2.86291 4.45648 2.28399C4.69683 1.70507 5.10291 1.21063 5.62329 0.863254C6.14367 0.515883 6.75499 0.331182 7.38001 0.332444C7.79588 0.330166 8.20807 0.410902 8.59256 0.569927C8.97706 0.728953 9.32621 0.963115 9.61968 1.25878C9.91316 1.55444 10.1451 1.90568 10.3021 2.29212C10.459 2.67856 10.5378 3.09243 10.5338 3.5097Z" fill="#939393" stroke="#939393" stroke-width="0.5"/>
<path d="M25.233 3.5055C25.2178 4.33655 24.8781 5.12839 24.287 5.71072C23.6959 6.29305 22.9006 6.6193 22.0722 6.6193C21.2439 6.6193 20.4486 6.29305 19.8575 5.71072C19.2664 5.12839 18.9267 4.33655 18.9115 3.5055C18.9038 3.08413 18.9799 2.66542 19.1353 2.27388C19.2906 1.88234 19.5223 1.52585 19.8165 1.22513C20.1108 0.924408 20.4618 0.68549 20.8491 0.52243C21.2364 0.35937 21.6522 0.275391 22.0722 0.275391C22.4922 0.275391 22.9081 0.35937 23.2954 0.52243C23.6827 0.68549 24.0337 0.924408 24.328 1.22513C24.6223 1.52585 24.8538 1.88234 25.0092 2.27388C25.1646 2.66542 25.2407 3.08413 25.233 3.5055Z" fill="#939393" stroke="#939393" stroke-width="0.5"/>
</svg>
