<?xml version="1.0" standalone="no"?>
<!DOCTYPE svg PUBLIC "-//W3C//DTD SVG 20010904//EN"
 "http://www.w3.org/TR/2001/REC-SVG-20010904/DTD/svg10.dtd">
<svg version="1.0" xmlns="http://www.w3.org/2000/svg"
 width="225.000000pt" height="225.000000pt" viewBox="0 0 225.000000 225.000000"
 preserveAspectRatio="xMidYMid meet">

<g transform="translate(0.000000,225.000000) scale(0.100000,-0.100000)"
fill="#000000" stroke="none">
<path d="M675 2219 c-44 -11 -121 -40 -172 -64 -240 -117 -413 -332 -479 -595
-25 -103 -25 -287 0 -390 84 -336 338 -585 676 -665 95 -22 275 -20 378 5 98
24 210 73 294 131 l61 41 336 -336 337 -336 56 0 c47 0 59 4 72 22 36 51 34
54 -329 418 -190 190 -345 348 -345 352 0 4 20 36 45 72 55 79 97 169 127 273
32 112 32 324 0 436 -92 322 -337 561 -654 637 -112 27 -291 26 -403 -1z m394
-160 c238 -63 418 -236 499 -477 23 -68 26 -93 26 -217 0 -124 -3 -149 -26
-217 -80 -239 -262 -412 -504 -479 -105 -29 -256 -29 -368 0 -234 62 -422 240
-502 476 -25 72 -27 94 -28 220 0 127 3 147 28 220 39 115 98 209 185 295 181
179 437 246 690 179z"/>
</g>
</svg>
