<svg 
          width="12.243322372436523" 
          height="12.24332046508789" fill="none" 
          xmlns="http://www.w3.org/2000/svg">
          <path d="M 6.12166285423822 12.24332046508789 C 4.910912844809346 12.243320465087892 3.727352186207902 11.8842917872756 2.720650432767814 11.211635269435712 C 1.7139486793277259 10.538978751595824 0.9293202746762008 9.582906192013569 0.4659863435189915 8.464319255098152 C 0.002652412361782097 7.345732318182735 -0.11857686739584028 6.1148711838689 0.1176287283636179 4.927385650797792 C 0.3538343241230761 3.739900117726684 0.9368658235855944 2.6491243859967746 1.7929953111405892 1.7929950318154966 C 2.649124798695584 0.9368656776342184 3.7399007003540348 0.3538342690003411 4.927386418419803 0.11762871003860878 C 6.114872136485571 -0.11857684892312356 7.345733462551416 0.0026524119485711317 8.464320573727996 0.4659862709244466 C 9.582907684904576 0.9293201299003221 10.538980393430387 1.7139484123170592 11.211637016061333 2.7206500089262518 C 11.884293638692279 3.7273516055354445 12.243322372436523 4.910912079753699 12.243322372436523 6.121661900563644 C 12.243322372436523 7.745226788999469 11.598363273338425 9.302293987133021 10.450329354823378 10.45032772679948 C 9.30229543630833 11.59836146646594 7.745227995604145 12.24332046508789 6.12166285423822 12.24332046508789 Z M 6.12166285423822 0.8745255264302656 C 5.083877131870613 0.8745255264302648 4.069396880108833 1.182264579289427 3.2065096181953656 1.758827316312991 C 2.343622356281898 2.335390053336555 1.6710835114976945 3.1548809899626535 1.2739401307645957 4.1136697632469446 C 0.8767967500314968 5.072458536531236 0.7728859350874188 6.127482038296368 0.9753478780330703 7.1453268405008785 C 1.1778098209787218 8.16317164270539 1.6775510764462382 9.098121756092814 2.411376388725965 9.831946954052206 C 3.145201701005692 10.565772152011599 4.080152377051063 11.065513225374769 5.097997337822434 11.267975136779512 C 6.1158422985938055 11.470437048184255 7.170865964717752 11.366526249428114 8.12965488736875 10.969382930564732 C 9.088443810019747 10.57223961170135 9.907934248804294 9.899701601448474 10.484497075648765 9.036814473961496 C 11.061059902493236 8.173927346474517 11.368799524550337 7.159447461257882 11.368799524550338 6.121661900563644 C 11.368799524550335 4.730034838439904 10.815977573646428 3.3954049476723727 9.831948485740496 2.4113760130652317 C 8.847919397834563 1.4273470784580908 7.513290133159192 0.8745255264302667 6.12166285423822 0.8745255264302656 L 6.12166285423822 0.8745255264302656 Z" fill="rgb(255,255,255)"/>
        </svg>